<svg width="24" height="25" viewBox="0 0 24 25" fill="none" xmlns="http://www.w3.org/2000/svg">
<path d="M13.5295 8.85186C12.9571 9.25995 12.2566 9.5 11.5 9.5C9.567 9.5 8 7.933 8 6C8 4.067 9.567 2.5 11.5 2.5C12.753 2.5 13.8522 3.15842 14.4705 4.14814M6 20.5872H8.61029C8.95063 20.5872 9.28888 20.6277 9.61881 20.7086L12.3769 21.3789C12.9753 21.5247 13.5988 21.5388 14.2035 21.4214L17.253 20.8281C18.0585 20.6712 18.7996 20.2854 19.3803 19.7205L21.5379 17.6217C22.154 17.0234 22.154 16.0524 21.5379 15.4531C20.9832 14.9134 20.1047 14.8527 19.4771 15.3103L16.9626 17.1449C16.6025 17.4081 16.1643 17.5498 15.7137 17.5498H13.2855L14.8311 17.5498C15.7022 17.5498 16.4079 16.8633 16.4079 16.0159V15.7091C16.4079 15.0055 15.9156 14.392 15.2141 14.2219L12.8286 13.6417C12.4404 13.5476 12.0428 13.5 11.6431 13.5C10.6783 13.5 8.93189 14.2988 8.93189 14.2988L6 15.5249M20 7C20 8.933 18.433 10.5 16.5 10.5C14.567 10.5 13 8.933 13 7C13 5.067 14.567 3.5 16.5 3.5C18.433 3.5 20 5.067 20 7ZM2 15.1L2 20.9C2 21.4601 2 21.7401 2.10899 21.954C2.20487 22.1422 2.35785 22.2951 2.54601 22.391C2.75992 22.5 3.03995 22.5 3.6 22.5H4.4C4.96005 22.5 5.24008 22.5 5.45399 22.391C5.64215 22.2951 5.79513 22.1422 5.89101 21.954C6 21.7401 6 21.4601 6 20.9V15.1C6 14.5399 6 14.2599 5.89101 14.046C5.79513 13.8578 5.64215 13.7049 5.45399 13.609C5.24008 13.5 4.96005 13.5 4.4 13.5L3.6 13.5C3.03995 13.5 2.75992 13.5 2.54601 13.609C2.35785 13.7049 2.20487 13.8578 2.10899 14.046C2 14.2599 2 14.5399 2 15.1Z" stroke="#B0B0B0" stroke-width="2" stroke-linecap="round" stroke-linejoin="round"/>
</svg>
