<svg width="21" height="20" viewBox="0 0 21 20" fill="none" xmlns="http://www.w3.org/2000/svg">
<rect width="20" height="20" transform="translate(0.5)" fill="white"/>
<path d="M8 2.5H13M3 5H18M16.3333 5L15.7489 13.7661C15.6612 15.0813 15.6174 15.7389 15.3333 16.2375C15.0833 16.6765 14.706 17.0294 14.2514 17.2497C13.735 17.5 13.0759 17.5 11.7578 17.5H9.24221C7.92409 17.5 7.26503 17.5 6.74861 17.2497C6.29396 17.0294 5.91674 16.6765 5.66665 16.2375C5.38259 15.7389 5.33875 15.0813 5.25107 13.7661L4.66667 5M8.83333 8.75V12.9167M12.1667 8.75V12.9167" stroke="#DC4A2D" stroke-linecap="round" stroke-linejoin="round"/>
</svg>
