<svg width="45" height="20" viewBox="0 0 45 20" fill="none" xmlns="http://www.w3.org/2000/svg">
<path d="M2.68 0.38V15H0.12V0.38H2.68ZM0.56 15V12.64H8.78V15H0.56ZM9.74641 10.04C9.74641 9.01333 9.97307 8.11333 10.4264 7.34C10.8797 6.55333 11.5064 5.94 12.3064 5.5C13.1064 5.06 14.0131 4.84 15.0264 4.84C16.0531 4.84 16.9597 5.06 17.7464 5.5C18.5464 5.94 19.1731 6.55333 19.6264 7.34C20.0797 8.11333 20.3064 9.01333 20.3064 10.04C20.3064 11.0667 20.0797 11.9733 19.6264 12.76C19.1731 13.5333 18.5464 14.14 17.7464 14.58C16.9597 15.02 16.0531 15.24 15.0264 15.24C14.0131 15.24 13.1064 15.02 12.3064 14.58C11.5064 14.14 10.8797 13.5333 10.4264 12.76C9.97307 11.9733 9.74641 11.0667 9.74641 10.04ZM12.1864 10.04C12.1864 10.64 12.3064 11.1667 12.5464 11.62C12.7997 12.0733 13.1331 12.4267 13.5464 12.68C13.9731 12.9333 14.4664 13.06 15.0264 13.06C15.5864 13.06 16.0797 12.9333 16.5064 12.68C16.9331 12.4267 17.2664 12.0733 17.5064 11.62C17.7464 11.1667 17.8664 10.64 17.8664 10.04C17.8664 9.42667 17.7464 8.9 17.5064 8.46C17.2664 8.00667 16.9331 7.65333 16.5064 7.4C16.0797 7.14667 15.5864 7.02 15.0264 7.02C14.4664 7.02 13.9731 7.14667 13.5464 7.4C13.1331 7.65333 12.7997 8.00667 12.5464 8.46C12.3064 8.9 12.1864 9.42667 12.1864 10.04ZM21.6805 9.84C21.6805 8.88 21.8738 8.02667 22.2605 7.28C22.6605 6.52 23.2138 5.92 23.9205 5.48C24.6271 5.04 25.4471 4.82 26.3805 4.82C27.2205 4.82 27.9405 5.00667 28.5405 5.38C29.1405 5.74 29.5605 6.24667 29.8005 6.9L29.5405 7.12L29.7405 5.12H32.0005V14.5C32.0005 15.5933 31.7871 16.54 31.3605 17.34C30.9471 18.1533 30.3538 18.7733 29.5805 19.2C28.8205 19.64 27.9005 19.86 26.8205 19.86C25.4071 19.86 24.2471 19.48 23.3405 18.72C22.4338 17.96 21.9005 16.92 21.7405 15.6H24.1805C24.2605 16.24 24.5271 16.74 24.9805 17.1C25.4471 17.46 26.0605 17.64 26.8205 17.64C27.6605 17.64 28.3271 17.3933 28.8205 16.9C29.3271 16.42 29.5805 15.7667 29.5805 14.94V12.48L29.8605 12.74C29.6205 13.3667 29.1805 13.8667 28.5405 14.24C27.9005 14.6133 27.1605 14.8 26.3205 14.8C25.3871 14.8 24.5738 14.5867 23.8805 14.16C23.1871 13.7333 22.6471 13.1467 22.2605 12.4C21.8738 11.6533 21.6805 10.8 21.6805 9.84ZM24.1405 9.78C24.1405 10.34 24.2471 10.84 24.4605 11.28C24.6871 11.7067 25.0005 12.0467 25.4005 12.3C25.8005 12.5533 26.2671 12.68 26.8005 12.68C27.3605 12.68 27.8405 12.56 28.2405 12.32C28.6538 12.0667 28.9671 11.7267 29.1805 11.3C29.4071 10.86 29.5205 10.3533 29.5205 9.78C29.5205 9.20667 29.4138 8.71333 29.2005 8.3C28.9871 7.87333 28.6738 7.54 28.2605 7.3C27.8605 7.06 27.3738 6.94 26.8005 6.94C26.2538 6.94 25.7805 7.06667 25.3805 7.32C24.9805 7.56 24.6738 7.89333 24.4605 8.32C24.2471 8.74667 24.1405 9.23333 24.1405 9.78ZM33.9456 10.04C33.9456 9.01333 34.1723 8.11333 34.6256 7.34C35.079 6.55333 35.7056 5.94 36.5056 5.5C37.3056 5.06 38.2123 4.84 39.2256 4.84C40.2523 4.84 41.159 5.06 41.9456 5.5C42.7456 5.94 43.3723 6.55333 43.8256 7.34C44.279 8.11333 44.5056 9.01333 44.5056 10.04C44.5056 11.0667 44.279 11.9733 43.8256 12.76C43.3723 13.5333 42.7456 14.14 41.9456 14.58C41.159 15.02 40.2523 15.24 39.2256 15.24C38.2123 15.24 37.3056 15.02 36.5056 14.58C35.7056 14.14 35.079 13.5333 34.6256 12.76C34.1723 11.9733 33.9456 11.0667 33.9456 10.04ZM36.3856 10.04C36.3856 10.64 36.5056 11.1667 36.7456 11.62C36.999 12.0733 37.3323 12.4267 37.7456 12.68C38.1723 12.9333 38.6656 13.06 39.2256 13.06C39.7856 13.06 40.279 12.9333 40.7056 12.68C41.1323 12.4267 41.4656 12.0733 41.7056 11.62C41.9456 11.1667 42.0656 10.64 42.0656 10.04C42.0656 9.42667 41.9456 8.9 41.7056 8.46C41.4656 8.00667 41.1323 7.65333 40.7056 7.4C40.279 7.14667 39.7856 7.02 39.2256 7.02C38.6656 7.02 38.1723 7.14667 37.7456 7.4C37.3323 7.65333 36.999 8.00667 36.7456 8.46C36.5056 8.9 36.3856 9.42667 36.3856 10.04Z" fill="#DC4A2D"/>
</svg>
